<svg version="1.1" id="Layer_1" xmlns="http://www.w3.org/2000/svg" xmlns:xlink="http://www.w3.org/1999/xlink" x="0px" y="0px"
	 width="100%" viewBox="0 0 1024 1024" enable-background="new 0 0 1024 1024" xml:space="preserve">
<path fill="#000000" opacity="1.000000" stroke="none" 
	d="
M972.337219,512.000122 
	C972.438477,592.914795 954.194824,668.711182 914.773560,739.039307 
	C889.977173,783.276489 858.792419,822.482422 820.903870,856.315063 
	C782.544373,890.568115 739.761597,917.802490 692.394592,937.795959 
	C656.685303,952.868835 619.572449,962.805603 581.226807,968.530090 
	C551.480591,972.970886 521.594299,974.451294 491.654419,973.131287 
	C436.013062,970.678101 382.442535,958.618469 331.210632,936.489502 
	C288.697327,918.126465 249.591675,894.257080 214.536682,863.994080 
	C161.793137,818.460510 120.872002,764.040771 92.662430,700.197144 
	C77.267784,665.356140 66.332558,629.153564 59.992657,591.625061 
	C57.062450,574.280029 55.173855,556.788147 54.496151,539.146606 
	C54.106144,528.994263 53.535210,518.850098 53.678642,508.692871 
	C54.748550,432.925781 71.779083,361.043060 107.567604,294.101135 
	C141.275085,231.051697 187.957657,179.232849 246.010056,137.508911 
	C295.793121,101.728386 350.733795,77.688164 410.422791,64.288376 
	C432.134033,59.414345 454.095764,56.136372 476.322479,54.538830 
	C490.770660,53.500370 505.197601,52.478275 519.694275,52.773392 
	C595.849548,54.323746 667.739075,72.373177 734.713501,108.903839 
	C772.076050,129.283005 805.603943,154.869690 836.017944,184.683807 
	C876.584106,224.449738 908.781982,270.003723 932.085571,321.778595 
	C948.886414,359.105896 960.395447,398.016052 966.548279,438.548340 
	C970.222900,462.754822 972.317505,487.031067 972.337219,512.000122 
M839.581543,211.903397 
	C830.203552,202.200668 820.738220,192.607712 810.716858,183.537567 
	C769.505066,146.237762 723.131775,117.433800 671.039551,97.927849 
	C620.893616,79.150681 569.036682,69.708481 515.497742,69.334808 
	C498.501068,69.216187 481.612915,70.487022 464.715332,72.195290 
	C437.526337,74.943977 410.841553,80.147781 384.678314,87.944809 
	C296.434662,114.242737 223.997879,164.065674 166.403290,235.596252 
	C105.695343,310.993469 75.261070,397.857361 70.533539,493.984253 
	C69.211060,520.874756 70.335220,547.811523 74.155090,574.614380 
	C78.861794,607.639893 86.761642,639.782166 98.446564,671.003174 
	C118.792122,725.364685 149.162277,773.600464 188.439758,816.151978 
	C216.491257,846.541565 248.414047,872.326843 283.906250,893.723877 
	C353.834900,935.881409 429.810150,956.557800 511.173615,957.343262 
	C532.384888,957.548035 553.655945,955.943848 574.788696,952.870056 
	C608.131653,948.020264 640.666077,940.213928 672.079102,928.049744 
	C750.221436,897.790405 815.114075,849.689331 865.931519,782.946411 
	C921.164062,710.404907 950.285950,628.177795 955.441345,537.427368 
	C956.467773,519.359009 956.021912,501.164764 954.915710,483.003632 
	C953.528687,460.232208 950.380554,437.769501 945.610962,415.510162 
	C936.127319,371.250519 920.083496,329.514099 897.493347,290.256744 
	C881.297546,262.111511 861.951294,236.344330 839.581543,211.903397 
z"/>
<path fill="#000000" opacity="1.000000" stroke="none" 
	d="
M547.679932,351.695068 
	C528.215027,369.976959 504.205231,378.121521 479.362579,385.580353 
	C486.067535,386.936859 492.784180,388.238190 499.475189,389.660217 
	C519.518311,393.920013 538.677185,400.370117 555.052734,413.208954 
	C571.815186,426.351135 581.706055,443.067291 583.524658,464.837067 
	C586.754028,503.495087 569.684937,530.424561 536.894470,548.691101 
	C517.388733,559.557190 496.096252,564.918396 473.999146,566.241760 
	C429.570068,568.902649 385.070343,566.863586 340.603546,567.331787 
	C318.276215,567.566956 295.943359,567.256165 273.615204,567.448242 
	C269.038483,567.487549 267.585175,566.066223 267.627167,561.480774 
	C267.740295,549.118103 267.565063,549.351013 279.941772,548.574829 
	C287.879791,548.077026 295.770538,546.813965 303.249359,543.773682 
	C310.795013,540.706177 314.485504,534.904419 315.683594,527.061279 
	C316.821838,519.610107 316.664459,512.131592 316.664703,504.646942 
	C316.667389,430.991760 316.695465,357.336517 316.620239,283.681427 
	C316.613464,277.037445 316.208130,270.365112 315.506409,263.757111 
	C314.386993,253.216034 307.557495,246.523300 294.989441,243.595871 
	C287.558197,241.864929 280.021606,240.424942 272.349731,240.376648 
	C268.856689,240.354645 267.632263,238.907471 267.705414,235.557617 
	C268.096375,217.648575 264.982300,220.918915 281.765808,220.864532 
	C342.588806,220.667435 403.415192,220.374512 464.234711,220.842957 
	C487.409607,221.021469 510.354248,224.347031 531.544739,234.813339 
	C552.635376,245.230347 567.604736,260.835541 570.018860,285.218262 
	C572.507080,310.348938 566.787903,333.207275 547.679932,351.695068 
M498.465942,512.954041 
	C509.673096,490.867737 510.908264,467.827026 502.812378,444.827179 
	C494.638702,421.606354 475.540680,410.214874 452.929565,404.513824 
	C433.267487,399.556305 412.996887,400.401001 392.884399,400.407593 
	C386.589722,400.409668 385.995667,401.030884 386.011688,407.262756 
	C386.107147,444.407959 386.179657,481.553284 386.367371,518.698059 
	C386.436554,532.379150 391.786926,538.493042 405.150269,541.698364 
	C420.275177,545.326233 435.425110,545.651245 450.584045,542.517822 
	C469.807159,538.544495 487.327332,531.550293 498.465942,512.954041 
M442.446777,373.814178 
	C449.295563,372.241089 455.854950,369.815643 462.101013,366.647858 
	C475.819336,359.690552 486.573425,349.796356 491.222900,334.700256 
	C494.986755,322.479401 495.099121,309.975342 493.819916,297.205902 
	C491.280212,271.853455 478.944702,256.114349 454.720612,248.555984 
	C433.134338,241.820694 410.935486,243.556030 388.861298,243.368515 
	C385.948761,243.343781 385.865967,245.062271 385.871246,247.328735 
	C385.961914,286.320770 385.987274,325.312988 386.029724,364.305145 
	C386.032959,367.304199 386.056671,370.303223 386.071838,373.302277 
	C386.083160,375.540283 387.149963,376.695953 389.446991,376.638031 
	C406.871094,376.198761 424.416840,378.237213 442.446777,373.814178 
z"/>
<path fill="#000000" opacity="1.000000" stroke="none" 
	d="
M625.403381,491.530121 
	C603.758423,460.346130 611.205261,416.703888 641.546448,395.343109 
	C673.262329,373.014496 716.442627,380.248322 738.486328,411.583099 
	C759.856689,441.960785 752.540039,485.967743 722.587341,507.208954 
	C690.523560,529.947266 648.144714,523.219788 625.403381,491.530121 
z"/>
<path fill="#000000" opacity="1.000000" stroke="none" 
	d="
M383.114746,729.109558 
	C384.065399,727.721252 384.850525,726.641663 385.559784,725.514343 
	C389.306030,719.559875 389.188934,719.742126 395.168152,723.286072 
	C398.445892,725.228882 398.493652,727.148071 396.809692,730.142944 
	C384.297821,752.395203 365.600372,764.738892 339.847961,765.284668 
	C316.473297,765.780151 295.991058,758.306885 279.468536,741.407837 
	C267.915009,729.590942 262.423859,714.736145 261.010773,698.696106 
	C259.621674,682.928406 260.093811,667.101562 266.511902,652.076843 
	C277.109344,627.268494 296.423523,613.632141 322.316742,608.719482 
	C338.778625,605.596252 355.080658,608.692139 371.348358,611.118103 
	C377.088715,611.974182 382.813080,612.989929 388.580353,613.591919 
	C391.769531,613.924866 393.221008,614.928345 393.427521,618.418884 
	C394.057556,629.069275 394.590912,639.718750 394.266418,650.380798 
	C394.189240,652.916626 396.126526,656.999207 391.055847,657.221619 
	C387.051117,657.397217 383.183655,658.335083 381.413483,652.325317 
	C377.441132,638.839233 368.168701,629.868652 354.891174,625.191833 
	C331.449860,616.934937 307.084290,627.684631 298.727356,651.079529 
	C289.951447,675.647339 291.035828,700.256104 303.486725,723.474182 
	C312.502289,740.286194 327.458069,748.846924 346.489075,748.468994 
	C361.418335,748.172546 373.498230,740.967651 383.114746,729.109558 
z"/>
<path fill="#000000" opacity="1.000000" stroke="none" 
	d="
M636.351135,680.766602 
	C632.363586,673.077393 626.054382,670.137817 618.076477,670.448059 
	C609.987793,670.762695 604.337891,676.518799 604.402222,684.573486 
	C604.435059,688.692810 604.175964,692.364136 599.530701,693.762451 
	C595.032593,695.116516 590.545532,695.190918 586.822632,691.851990 
	C583.312256,688.703674 583.875732,684.703186 585.281433,680.761841 
	C587.948486,673.283936 593.656616,668.482849 600.062073,664.400208 
	C613.675720,655.723145 628.562866,653.448608 644.111206,656.931458 
	C660.914124,660.695312 668.125854,671.346069 666.945679,690.873596 
	C666.049561,705.701294 666.588013,720.507507 666.379578,735.321289 
	C666.257874,743.967834 669.380554,746.384460 677.445862,743.543030 
	C681.519409,742.107910 682.895996,744.920715 684.752625,747.006592 
	C686.798523,749.305115 684.271362,750.551086 683.053833,751.898682 
	C676.607544,759.033447 669.162231,764.192749 659.027466,764.385010 
	C650.628296,764.544250 644.607056,761.217224 641.249390,753.364014 
	C640.881653,752.503967 640.716614,751.372986 639.137634,750.881714 
	C635.882812,753.179626 632.500549,755.805115 628.891418,758.069092 
	C619.862610,763.732361 610.022827,765.271240 599.696594,762.859863 
	C590.296814,760.664795 582.992554,752.568542 581.748230,743.507996 
	C580.026184,730.970032 584.655762,721.561768 595.689087,715.630676 
	C605.321533,710.452576 615.944824,708.214050 626.459412,705.757568 
	C639.726196,702.658142 639.729736,702.749268 638.696472,689.227905 
	C638.477905,686.367981 637.773926,683.670593 636.351135,680.766602 
M632.330627,716.070740 
	C625.855042,717.540222 619.337769,718.883667 613.703064,722.719604 
	C608.826782,726.039246 607.471985,730.836121 608.482727,736.277344 
	C609.401123,741.221985 612.489502,744.399719 617.432434,745.974365 
	C623.497620,747.906311 628.434814,745.088440 633.550476,742.753906 
	C637.234619,741.072632 639.126282,738.553406 638.742981,734.163635 
	C638.339600,729.544189 638.461487,724.849487 638.728760,720.209290 
	C638.987000,715.724792 637.203857,714.441895 632.330627,716.070740 
z"/>
<path fill="#000000" opacity="1.000000" stroke="none" 
	d="
M521.359497,655.850281 
	C535.630371,655.335205 548.394165,657.856384 557.976868,668.937988 
	C564.328979,676.283630 567.444946,684.921265 567.281982,694.620422 
	C567.158630,701.960754 564.584656,704.347473 557.382324,704.350464 
	C540.720581,704.357544 524.057861,704.460632 507.397736,704.294800 
	C503.048035,704.251465 501.817078,705.709290 502.630524,709.931946 
	C504.244934,718.312988 506.258850,726.442627 511.356689,733.561096 
	C518.268188,743.212036 529.002869,747.033203 540.335571,743.340881 
	C545.259583,741.736572 549.840027,739.307678 553.945007,736.101990 
	C560.701660,730.825745 560.695618,730.804443 566.603516,738.009949 
	C557.143188,752.270813 544.846497,763.039856 527.086487,764.159973 
	C496.744385,766.073486 477.256287,748.186462 474.575684,717.467285 
	C472.814148,697.280518 477.266815,679.495300 493.725342,666.098328 
	C501.669312,659.632019 511.068420,657.235596 521.359497,655.850281 
M507.934570,691.646484 
	C516.402344,691.642334 524.870178,691.651978 533.337830,691.622070 
	C534.952271,691.616333 536.694031,691.903259 537.528748,689.832214 
	C540.882019,681.512512 532.728760,668.705566 523.748718,668.242676 
	C513.623474,667.720764 502.417297,679.367676 503.448242,689.280151 
	C503.698853,691.689758 505.377991,691.594788 507.934570,691.646484 
z"/>
<path fill="#000000" opacity="1.000000" stroke="none" 
	d="
M452.369324,739.490234 
	C452.766113,746.066223 455.319092,750.417419 461.856995,751.528687 
	C466.458588,752.310852 464.900299,756.000793 465.038788,758.698547 
	C465.198212,761.804932 462.628723,761.312012 460.727051,761.316650 
	C445.905121,761.352539 431.083069,761.339233 416.261047,761.337585 
	C414.042236,761.337341 411.668091,761.463257 411.728973,758.227783 
	C411.781830,755.420410 410.535034,751.963501 414.963440,751.110168 
	C420.866089,749.972595 422.612610,745.712219 422.619720,740.451904 
	C422.668793,704.146362 422.692535,667.840515 422.613434,631.535034 
	C422.593903,622.569641 421.429840,621.260742 412.730927,617.937500 
	C407.122040,615.794678 410.667603,611.140076 409.532349,607.489624 
	C422.662506,603.899719 435.404449,600.310303 448.214355,596.982422 
	C451.741547,596.066101 453.397980,598.005615 453.364319,601.674500 
	C453.162720,623.656189 453.430115,645.650208 452.780396,667.617676 
	C452.076141,691.432190 452.639465,715.237549 452.369324,739.490234 
z"/>
<path fill="#000000" opacity="1.000000" stroke="none" 
	d="
M705.640503,687.434326 
	C705.499573,680.375183 702.404602,676.305420 695.638611,675.513489 
	C691.180298,674.991699 692.026978,671.473633 691.694092,668.669739 
	C691.360229,665.857910 692.186523,664.157288 695.449890,663.413025 
	C706.618103,660.866028 717.774109,658.233948 728.694702,654.698730 
	C731.865356,653.672424 733.750854,654.610413 733.538269,658.575562 
	C733.256226,663.835754 733.468689,669.122559 733.468689,675.700256 
	C736.615112,672.292114 738.928040,669.792908 741.234192,667.287476 
	C745.786438,662.342102 750.593140,657.833069 757.451477,656.188721 
	C763.997437,654.619263 771.185913,656.833923 774.441528,661.664856 
	C778.338013,667.446777 778.311035,676.099915 774.379822,681.442261 
	C770.500793,686.713806 762.752869,688.363831 756.959839,684.399414 
	C750.042908,679.665771 743.827271,681.371582 737.396851,685.067871 
	C735.080383,686.399292 734.298523,688.214478 734.310120,690.811157 
	C734.383545,707.307251 734.273010,723.804382 734.392822,740.299927 
	C734.448730,747.992188 737.722595,751.280701 746.552612,751.475647 
	C751.676941,751.588745 752.342529,753.961121 752.075684,758.005676 
	C751.927612,760.249634 751.038635,761.329285 748.721375,761.325378 
	C731.225525,761.295715 713.729675,761.300232 696.233826,761.311035 
	C694.095886,761.312317 692.477295,760.606995 692.773926,758.199341 
	C693.061157,755.867737 691.198181,752.928284 695.133423,751.540955 
	C704.931030,748.087097 705.646484,746.856873 705.649292,736.373047 
	C705.653625,720.209900 705.647583,704.046814 705.640503,687.434326 
z"/>
</svg>