<svg version="1.1" id="Layer_1" xmlns="http://www.w3.org/2000/svg" xmlns:xlink="http://www.w3.org/1999/xlink" x="0px" y="0px"
	 width="100%" viewBox="0 0 1024 1024" enable-background="new 0 0 1024 1024" xml:space="preserve">
<path fill="#000000" opacity="1.000000" stroke="none" 
	d="
M362.725464,397.999939 
	C362.729156,361.843903 362.784332,326.187714 362.676117,290.532013 
	C362.661530,285.736450 362.237488,280.859894 361.290070,276.164703 
	C358.336304,261.526581 348.829559,253.561325 333.313599,252.308762 
	C330.529816,252.084030 328.000397,251.954712 327.685577,248.183289 
	C327.230469,242.730957 327.960297,241.720078 333.514191,241.720459 
	C374.502014,241.723328 415.491730,241.537888 456.476501,241.902908 
	C468.571442,242.010635 480.752991,242.948685 492.616547,245.747665 
	C513.110107,250.582718 531.965149,258.580353 545.511658,275.619537 
	C571.521423,308.335480 564.929016,360.453552 519.956970,380.178802 
	C515.547424,382.112854 510.995697,383.767975 506.410706,385.244080 
	C501.997467,386.664948 497.455353,387.685608 492.018433,389.135864 
	C501.476868,391.568665 510.311798,393.081787 518.765076,396.091949 
	C536.705261,402.480286 551.607849,412.814514 562.568237,428.557434 
	C585.272278,461.168365 575.597900,508.826660 542.227844,530.230042 
	C525.332520,541.066589 506.755951,546.219482 487.062653,547.226807 
	C435.627747,549.857605 384.141602,547.592468 332.683044,548.330933 
	C329.104431,548.382202 327.612579,547.174561 327.617737,543.432434 
	C327.623138,539.537354 329.483215,538.452759 332.886658,538.703369 
	C336.434204,538.964844 339.863068,538.125305 343.221588,537.242859 
	C356.313812,533.802856 362.658844,524.653625 362.689606,508.966553 
	C362.761749,472.144470 362.720825,435.322174 362.725464,397.999939 
M515.310425,513.793457 
	C529.632263,494.989349 531.038879,473.614929 526.976318,451.508759 
	C521.513000,421.780396 496.936218,405.036316 470.361786,400.275879 
	C451.086090,396.822906 431.597626,397.136261 412.127167,397.251343 
	C405.301849,397.291687 405.259491,397.282623 405.260223,404.270386 
	C405.264313,443.600891 405.426117,482.932312 405.156708,522.260864 
	C405.118134,527.893494 407.143860,530.209106 412.121552,531.821594 
	C432.175049,538.317566 452.553345,539.298035 473.246002,536.108093 
	C489.582123,533.589783 503.751770,526.895081 515.310425,513.793457 
M515.656189,325.191833 
	C515.729980,320.533081 515.397339,315.918030 514.958496,311.264160 
	C512.085144,280.793701 489.356506,262.185425 461.845551,257.216766 
	C444.972198,254.169281 428.004852,255.885269 411.089355,255.217575 
	C406.313324,255.029037 405.136505,256.955994 405.206573,261.371124 
	C405.417847,274.686401 405.276642,288.007202 405.275421,301.325867 
	C405.273071,327.297211 405.267883,353.268524 405.278107,379.239868 
	C405.279144,381.869995 404.740265,384.829834 408.968903,384.776367 
	C428.390198,384.530792 447.865448,386.185028 467.121643,381.776306 
	C489.881927,376.565308 506.688080,364.953705 513.243652,341.358154 
	C514.637695,336.340607 514.653625,331.167114 515.656189,325.191833 
z"/>
<path fill="#000000" opacity="1.000000" stroke="none" 
	d="
M415.964355,627.484558 
	C417.703339,626.116211 418.221344,623.257751 420.753021,624.044678 
	C423.294159,624.834595 423.039276,627.436462 423.244446,629.529663 
	C423.940369,636.630615 424.657837,643.731995 425.156128,650.848022 
	C425.295868,652.843750 426.356842,655.721008 423.740662,656.626587 
	C420.728638,657.669189 420.550018,654.405273 419.642303,652.682556 
	C409.374817,633.195190 391.996979,624.605408 371.049774,629.373962 
	C353.529999,633.362305 344.564545,645.932007 340.905212,662.467529 
	C337.115936,679.590576 338.731934,696.183472 348.397797,711.458252 
	C363.774323,735.757507 402.298584,739.726624 419.782104,712.209961 
	C420.228760,711.506958 420.750732,710.849609 421.169281,710.131226 
	C422.070679,708.583801 423.149567,707.252747 425.137207,708.192078 
	C427.239197,709.185547 426.565826,710.890137 425.926788,712.488159 
	C421.581787,723.354126 414.215973,731.475281 403.480225,736.164734 
	C373.975586,749.052612 325.158661,737.325317 318.485565,690.970276 
	C313.456146,656.033264 333.564514,626.569763 368.069305,620.087891 
	C382.862640,617.308960 397.239471,618.991516 410.605499,626.539062 
	C412.157227,627.415283 413.693054,628.675903 415.964355,627.484558 
z"/>
<path fill="#000000" opacity="1.000000" stroke="none" 
	d="
M569.598938,725.943237 
	C567.174927,715.839111 571.009338,707.047363 579.967285,701.941650 
	C589.038879,696.771240 599.065857,694.205383 609.105164,691.858276 
	C613.228088,690.894409 615.212036,689.157043 614.759888,684.764526 
	C614.404724,681.314941 614.949768,677.823486 613.799255,674.388916 
	C611.173584,666.550476 604.718262,663.159180 596.888367,665.781189 
	C592.652039,667.199829 590.283325,670.075317 590.236755,674.677795 
	C590.213318,676.992798 590.585999,679.348633 589.608948,681.581177 
	C588.057434,685.126831 585.796814,688.356262 581.622864,687.981873 
	C577.185425,687.583862 574.645325,684.252197 573.855957,679.966492 
	C573.061157,675.651428 574.347656,671.736511 577.007874,668.265991 
	C586.595703,655.757446 610.298462,652.519287 622.851196,662.022217 
	C628.939026,666.630798 631.162598,673.131287 631.261780,680.394348 
	C631.430115,692.713440 631.293701,705.036560 631.325317,717.357788 
	C631.330017,719.179138 631.341431,721.044678 631.714905,722.812683 
	C632.873901,728.300842 634.588379,729.298218 640.148071,728.024658 
	C641.260315,727.769958 642.369080,727.215637 643.484253,727.987793 
	C644.205933,732.630676 638.940857,738.743225 632.735962,739.965759 
	C627.597900,740.978088 622.397461,740.420044 619.177612,735.834167 
	C615.969910,731.265564 612.971069,731.911865 609.271973,734.751221 
	C601.719177,740.548279 593.207825,741.548889 584.187256,739.433044 
	C576.992859,737.745605 572.215515,733.259155 569.598938,725.943237 
M591.795288,728.873596 
	C601.182678,732.568726 611.636658,728.843628 613.921509,720.283936 
	C615.842407,713.087769 614.796631,705.592590 614.290344,697.499329 
	C604.193359,699.367432 595.389709,702.481812 589.095093,710.111938 
	C584.517273,715.661011 585.680176,722.963745 591.795288,728.873596 
z"/>
<path fill="#000000" opacity="1.000000" stroke="none" 
	d="
M620.963745,545.237427 
	C609.982178,538.300293 605.343262,528.377686 606.950806,516.122986 
	C608.521851,504.145905 614.996887,495.291534 627.053955,491.854431 
	C638.862915,488.488129 649.535583,490.746460 658.023499,500.154663 
	C667.223145,510.351715 667.840881,527.184937 659.514404,538.056763 
	C651.237305,548.864258 635.203003,553.294800 620.963745,545.237427 
z"/>
<path fill="#000000" opacity="1.000000" stroke="none" 
	d="
M504.145844,701.129333 
	C504.692749,708.820862 507.628479,715.113281 512.522888,720.343018 
	C521.762817,730.215820 540.402588,729.269592 550.272888,718.763794 
	C552.230347,716.680420 553.898804,711.948792 557.500671,714.790771 
	C561.040649,717.583862 556.766174,720.390686 555.284546,722.667725 
	C546.009705,736.922119 529.296509,743.316101 513.637451,738.916199 
	C498.251099,734.592957 487.824463,721.145142 486.629486,704.298279 
	C485.549408,689.071777 489.055603,675.567932 500.933380,665.109924 
	C511.284271,655.996155 523.270691,654.521912 535.957947,658.450195 
	C548.398193,662.302002 554.485657,671.895630 557.001099,684.085144 
	C558.607971,691.871948 557.380188,693.289429 549.642517,693.296387 
	C536.324463,693.308350 523.006287,693.277893 509.688416,693.321777 
	C503.081207,693.343567 502.612518,694.019836 504.145844,701.129333 
M538.093323,676.458496 
	C534.687195,667.228333 528.676697,663.084900 520.583740,664.387878 
	C512.045715,665.762634 505.463440,674.485962 505.080688,684.944275 
	C506.151703,686.054993 507.552429,685.707825 508.835663,685.711792 
	C517.484009,685.738464 526.135925,685.577087 534.779663,685.778809 
	C539.241211,685.882935 540.559021,684.200195 539.152283,680.081665 
	C538.830872,679.140625 538.637451,678.155762 538.093323,676.458496 
z"/>
<path fill="#000000" opacity="1.000000" stroke="none" 
	d="
M448.691711,723.540649 
	C448.700287,695.459656 448.714691,667.830261 448.701599,640.200928 
	C448.698029,632.634460 448.166779,631.857117 441.293152,629.299561 
	C440.113617,628.860657 439.102112,628.479614 439.065704,627.046570 
	C439.031036,625.681152 439.873383,624.796997 441.023560,624.443542 
	C448.170593,622.247314 455.311188,620.017212 462.522217,618.048340 
	C465.552216,617.221008 466.177765,619.426697 466.187775,621.883972 
	C466.208771,627.043579 466.261444,632.203186 466.264069,637.362793 
	C466.278259,665.158569 466.279968,692.954346 466.288513,720.750122 
	C466.291138,729.365173 466.346375,729.510620 474.378845,732.633423 
	C475.923218,733.233826 477.184235,733.855652 477.057770,735.680115 
	C476.904694,737.888123 475.241394,738.230530 473.465759,738.232117 
	C463.146637,738.241455 452.827515,738.242249 442.508453,738.217896 
	C440.807739,738.213928 439.018219,738.149414 438.908203,735.787659 
	C438.809967,733.679688 440.220856,732.966003 441.993042,732.540649 
	C446.464111,731.467407 448.875702,728.736633 448.691711,723.540649 
z"/>
<path fill="#000000" opacity="1.000000" stroke="none" 
	d="
M707.480286,661.854553 
	C710.151428,666.931824 710.170776,671.453308 706.331116,675.530212 
	C702.773071,679.308105 699.424377,678.987000 696.512085,674.668762 
	C691.459290,667.176697 687.043152,667.190491 681.995972,674.734680 
	C678.850220,679.437012 677.441650,684.738953 677.353088,690.289795 
	C677.185852,700.773376 677.245483,711.262268 677.332336,721.747864 
	C677.395752,729.401794 678.220154,730.438843 685.489441,732.632751 
	C687.316345,733.184143 689.265991,733.560425 689.017090,735.992065 
	C688.747314,738.626404 686.499512,738.252930 684.753418,738.259033 
	C674.600159,738.294800 664.446655,738.268677 654.293396,738.229065 
	C652.639038,738.222595 650.649109,738.314697 650.241577,736.206177 
	C649.770081,733.766052 651.774780,733.090820 653.601135,732.744629 
	C659.318298,731.660950 660.860107,728.017273 660.780579,722.604675 
	C660.567932,708.126526 660.748047,693.643188 660.685547,679.162231 
	C660.652893,671.608704 659.938599,670.699219 652.841919,668.113525 
	C651.499207,667.624268 650.343506,666.979492 650.399841,665.386719 
	C650.445435,664.097107 651.302429,663.287354 652.523315,662.905396 
	C659.503784,660.721375 666.480652,658.525757 673.470154,656.371155 
	C676.130066,655.551208 677.221130,656.895203 677.257629,659.383423 
	C677.303101,662.480469 677.268555,665.578613 678.394287,669.048340 
	C680.229309,667.016907 682.009644,664.932800 683.908936,662.963379 
	C691.698364,654.886292 700.681519,654.349915 707.480286,661.854553 
z"/>
</svg>