<?xml version="1.0" encoding="UTF-8" standalone="no"?>
<!DOCTYPE svg PUBLIC "-//W3C//DTD SVG 1.2 Tiny-P/S//EN" "http://www.w3.org/Graphics/SVG/1.2/xhtml-svg12-tiny-ps.dtd">
<svg
   version="1.2"
   baseProfile="tiny-ps"
   id="svg1"
   width="1024"
   height="1024"
   viewBox="0 0 1024 1024"
   xmlns="http://www.w3.org/2000/svg"
   xmlns:svg="http://www.w3.org/2000/svg">
   <title>BClear</title>
   <desc>Good logo</desc>
  <defs
     id="defs1" />
  <g
     id="g1">
    <path
       fill="#000000"
       d="m 511.19288,945.31064 c -0.13334,-0.1181 -6.31743,-0.5008 -13.74243,-0.8505 -7.425,-0.3496 -15.075,-0.8486 -17,-1.1089 -1.925,-0.2603 -5.975,-0.7018 -9,-0.9813 -3.025,-0.2794 -7.075,-0.6851 -9,-0.9015 -4.7825,-0.5375 -23.48414,-3.4655 -28.99134,-4.5389 -2.47024,-0.4814 -4.83274,-0.6644 -5.25,-0.4065 -0.41726,0.2579 -0.75866,0.054 -0.75866,-0.4522 0,-0.5066 -2.5875,-1.3785 -5.75,-1.9375 -7.47598,-1.3214 -22.19313,-5.0567 -24.75,-6.2817 -1.1,-0.5269 -4.73275,-1.579 -8.07278,-2.3379 -3.34002,-0.7589 -7.06182,-1.9091 -8.27066,-2.5561 -1.20884,-0.6469 -2.63859,-0.9039 -3.17723,-0.571 -0.53863,0.3329 -0.97933,0.1022 -0.97933,-0.5128 0,-0.6149 -0.45,-0.8399 -1,-0.5 -0.55,0.34 -1,0.067 -1,-0.6076 0,-0.6741 -0.2961,-0.9296 -0.65799,-0.5677 -0.3619,0.3619 -1.2619,0.1568 -2,-0.4558 -0.73811,-0.6126 -1.34201,-0.7786 -1.34201,-0.3689 0,0.4097 -0.5625,0.2918 -1.25,-0.262 -0.6875,-0.5539 -2.825,-1.3431 -4.75,-1.7539 -1.925,-0.4107 -5.75,-1.7558 -8.5,-2.989 -8.04621,-3.6083 -16.5838,-6.5613 -17.43998,-6.0322 -0.436,0.2695 -1.59761,-0.3994 -2.58136,-1.4864 -1.82604,-2.0178 -4.08775,-2.771 -2.99077,-0.9961 0.66932,1.083 -5.65238,-2.0334 -6.54315,-3.2255 -0.30623,-0.4098 -1.75824,-0.8446 -3.2267,-0.9661 -1.46846,-0.1216 -2.88872,-0.7912 -3.15613,-1.488 -0.26741,-0.6969 -1.17824,-1.0015 -2.02406,-0.6769 -0.98056,0.3763 -1.53785,0.022 -1.53785,-0.9767 0,-0.9616 -1.54518,-2.0298 -4,-2.7653 -2.2,-0.6591 -4,-1.5772 -4,-2.0402 0,-0.4629 -0.92656,-0.8417 -2.05902,-0.8417 -1.13246,0 -1.7809,-0.45 -1.44098,-1 0.33992,-0.55 -0.30852,-1 -1.44098,-1 -1.13246,0 -2.05902,-0.45 -2.05902,-1 0,-0.55 -0.8449,-1 -1.87756,-1 -1.03265,0 -2.37731,-0.6021 -2.98812,-1.3381 -0.61081,-0.736 -2.86935,-1.8651 -5.01896,-2.5092 -2.14962,-0.644 -4.16584,-1.8418 -4.48049,-2.6618 -0.31466,-0.82 -1.09911,-1.4909 -1.74324,-1.4909 -0.64413,0 -1.81662,-0.7875 -2.60554,-1.75 -0.78892,-0.9625 -1.14948,-1.1875 -0.80123,-0.5 0.34825,0.6875 0.20476,1.25 -0.31885,1.25 -0.52362,0 -1.21105,-0.675 -1.52764,-1.5 -0.31658,-0.825 -1.05872,-1.5 -1.64919,-1.5 -0.59048,0 -1.6171,-0.4591 -2.28139,-1.0203 -1.73352,-1.4645 -13.6815,-8.9802 -13.96773,-8.7862 -0.13203,0.09 -2.00068,-1.4503 -4.15255,-3.4217 -2.33995,-2.1437 -4.516,-3.3527 -5.41404,-3.0081 -0.97704,0.3749 -1.24898,0.1675 -0.7785,-0.5937 0.39847,-0.6448 0.18491,-1.16997 -0.47571,-1.16997 -0.65933,0 -1.84425,-0.7875 -2.63317,-1.75 -0.92888,-1.13325 -1.20147,-1.22136 -0.77347,-0.25 0.36351,0.825 -0.2497,0.37859 -1.3627,-0.99202 -1.11299,-1.3706 -2.61454,-2.52132 -3.33677,-2.55715 -2.29901,-0.11403 -4.81315,-1.62302 -4.81315,-2.88884 0,-0.67322 -1.2375,-1.86184 -2.75,-2.64138 -1.5125,-0.77954 -3.10986,-1.98058 -3.54969,-2.66898 -0.43983,-0.6884 -1.3677,-1.25163 -2.06194,-1.25163 -0.69424,0 -2.2851,-1.38348 -3.53525,-3.07439 -1.39448,-1.88613 -2.84,-2.85682 -3.74,-2.51146 -0.80685,0.30962 -1.22121,0.16525 -0.9208,-0.32082 0.30041,-0.48607 -0.15474,-1.15274 -1.01145,-1.48148 -0.8567,-0.32875 -1.27755,-1.0509 -0.93524,-1.60479 0.34302,-0.55501 -0.32835,-1.00706 -1.49563,-1.00706 -1.16492,0 -1.88758,-0.37288 -1.60592,-0.82861 0.28166,-0.45574 -1.25785,-1.91824 -3.42113,-3.25 -2.16328,-1.33177 -4.19749,-3.20889 -4.52048,-4.17139 -0.32298,-0.9625 -0.98374,-1.75 -1.46834,-1.75 -1.23917,0 -5.98413,-4.52558 -5.98413,-5.70745 0,-0.53796 -2.01197,-2.01291 -4.47105,-3.27766 -2.45908,-1.26475 -4.23252,-2.6855 -3.94099,-3.15722 0.29154,-0.47172 0.027,-0.85767 -0.58796,-0.85767 -0.61492,0 -0.83992,-0.45 -0.5,-1 0.33992,-0.55 0.25398,-1.00055 -0.19098,-1.00122 -0.44496,-6.7e-4 -2.11651,-1.12567 -3.71456,-2.5 -1.59805,-1.37433 -3.3121,-2.49878 -3.80902,-2.49878 -0.49691,0 -0.62536,-0.45 -0.28544,-1 0.33992,-0.55 0.14148,-1 -0.44098,-1 -0.58246,0 -1.05902,-0.70156 -1.05902,-1.55902 0,-0.85746 -0.45,-1.2809 -1,-0.94098 -0.55,0.33992 -1,0.14148 -1,-0.44098 0,-0.58246 -0.675,-1.05902 -1.5,-1.05902 -0.825,0 -1.5,-0.46822 -1.5,-1.04049 0,-2.17862 -6.41379,-10.21239 -7.38095,-9.24522 -0.34048,0.34047 -0.61905,0.10956 -0.61905,-0.51315 0,-1.43028 -5.58265,-7.20114 -6.9663,-7.20114 -0.56853,0 -1.0337,-0.92656 -1.0337,-2.05902 0,-1.13246 -0.45,-1.7809 -1,-1.44098 -0.55,0.33992 -1,-0.0977 -1,-0.97237 0,-0.87472 -0.65787,-1.84285 -1.46193,-2.1514 -0.80407,-0.30854 -1.73646,-1.42596 -2.072,-2.48313 -0.33553,-1.05718 -0.94016,-1.71813 -1.3436,-1.46879 -0.40345,0.24935 -1.60855,-1.18354 -2.67801,-3.18418 -1.06945,-2.00065 -3.18196,-4.99841 -4.69446,-6.6617 -1.5125,-1.66328 -2.75,-3.59886 -2.75,-4.30129 0,-0.70243 -0.47656,-1.27714 -1.05902,-1.27714 -0.58246,0 -0.81064,-0.40188 -0.50707,-0.89307 0.30357,-0.49118 -0.79079,-1.95368 -2.43191,-3.25 -1.64112,-1.29631 -2.98793,-2.91943 -2.99293,-3.60693 -0.005,-0.6875 -0.81587,-2.0568 -1.80196,-3.04289 -0.98609,-0.98609 -2.3773,-3.20376 -3.09156,-4.92815 -0.71427,-1.72439 -1.93246,-3.37846 -2.70711,-3.67572 -0.77464,-0.29726 -1.40844,-1.22959 -1.40844,-2.07186 0,-0.84226 -0.525,-1.53138 -1.16667,-1.53138 -0.64166,0 -0.86255,-0.30412 -0.49085,-0.67581 0.3717,-0.3717 -0.25187,-1.66329 -1.3857,-2.8702 -1.13384,-1.20691 -2.13137,-3.12166 -2.21674,-4.25499 -0.0854,-1.13333 -0.58752,-1.97924 -1.11588,-1.8798 -0.52836,0.0994 -1.46501,-0.78371 -2.08145,-1.96255 -0.61644,-1.17884 -1.70446,-2.84663 -2.41784,-3.70619 -0.71338,-0.85957 -1.00675,-2.03256 -0.65194,-2.60666 0.35481,-0.57409 0.213,-1.0438 -0.31513,-1.0438 -1.34022,0 -5.30707,-6.94945 -4.61035,-8.07677 0.31382,-0.50778 0.12699,-0.92323 -0.41519,-0.92323 -1.12876,0 -4.13226,-5.60589 -4.13226,-7.71266 0,-0.77295 -0.45,-1.12726 -1,-0.78734 -0.55,0.33992 -1,0.14148 -1,-0.44098 0,-2.14061 -0.17095,-2.59044 -1.57344,-4.14017 -0.78701,-0.86963 -1.15969,-1.85238 -0.82819,-2.18389 0.3315,-0.3315 -0.32695,-1.60063 -1.46324,-2.82029 -1.13628,-1.21966 -1.812452,-2.62776 -1.50259,-3.12913 0.30986,-0.50136 -0.243582,-1.80326 -1.229882,-2.8931 -0.98629,-1.08984 -1.94339,-2.97399 -2.12688,-4.18699 -0.18349,-1.213 -0.7706,-2.35545 -1.3047,-2.53878 -0.53409,-0.18334 -0.97108,-1.19584 -0.97108,-2.25 0,-1.05417 -0.42203,-1.91667 -0.93785,-1.91667 -0.51582,0 -0.87754,-0.80058 -0.80384,-1.77906 0.125,-1.65936 -2.54399,-8.23403 -5.83563,-14.37523 -0.78247,-1.45986 -1.42268,-3.57081 -1.42268,-4.69099 0,-1.12018 -0.45,-2.3148 -1,-2.65472 -0.55,-0.33992 -1,-1.49148 -1,-2.55902 0,-1.06754 -0.45,-1.94098 -1,-1.94098 -0.55,0 -1,-0.84504 -1,-1.87788 0,-1.03283 -0.7542,-3.62033 -1.67601,-5.75 -0.9218,-2.12966 -1.82704,-4.77212 -2.01164,-5.87212 -0.18459,-1.1 -0.62299,-2.675 -0.97422,-3.5 -0.35122,-0.825 -0.80886,-2.39038 -1.01697,-3.47861 -0.20811,-1.08824 -0.81551,-2.41574 -1.34977,-2.95 -1.21035,-1.21035 -1.28396,-2.88261 -0.0945,-2.1475 0.48227,0.29806 -0.24566,-2.23714 -1.61762,-5.63377 -1.37197,-3.39664 -2.6884,-7.55145 -2.92541,-9.23291 -0.23701,-1.68147 -1.31934,-6.00683 -2.40517,-9.61192 -1.08584,-3.60509 -2.1688,-7.88009 -2.40658,-9.5 -0.63297,-4.31206 -2.42826,-14.55708 -3.05704,-17.44529 -0.29934,-1.375 -0.75492,-4.51902 -1.01239,-6.98672 -0.25747,-2.46769 -0.6735,-5.16769 -0.9245,-6 -0.5904,-1.95772 -1.56617,-7.57274 -2.08765,-12.01328 -0.22606,-1.925 -0.63022,-4.85 -0.89813,-6.5 -0.26791,-1.65 -1.22212,-13.35 -2.12046,-26 -1.87588,-26.41532 -1.41243,-60.04499 1.10937,-80.5 0.84758,-6.875 1.96681,-16.1 2.48716,-20.5 1.24454,-10.52358 5.67405,-34.6824 7.51734,-41 1.70135,-5.83112 1.36933,-3.49995 -2.13636,15 -18.81471,99.28734 -5.08771,205.90198 38.148692,296.29252 50.87505,106.36002 142.07484,191.74465 250.45189,234.48245 58.16023,22.9351 115.93871,34.0053 178,34.1043 26.13355,0.042 37.94678,-0.6204 61.5,-3.4469 16.77692,-2.0133 19.10473,-2.2038 18.40706,-1.5061 -1.17297,1.173 -43.4299,5.6904 -57.40706,6.1371 -23.03284,0.736 -41.47715,1.1218 -41.75757,0.8734 z m 101.00757,-8.099 c 0.6875,-0.2775 1.8125,-0.2775 2.5,0 0.6875,0.2774 0.125,0.5043 -1.25,0.5043 -1.375,0 -1.9375,-0.2269 -1.25,-0.5043 z m 6.0625,-1.0209 c 0.72187,-0.2888 1.58438,-0.2533 1.91667,0.079 0.33229,0.3323 -0.25834,0.5687 -1.3125,0.5252 -1.16495,-0.048 -1.4019,-0.2849 -0.60417,-0.6041 z M 338.9169,714.49307 c -43.63327,-7.14052 -70.73826,-43.17701 -68.15959,-90.6192 0.77319,-14.22512 2.97481,-23.915 7.67042,-33.75941 10.88302,-22.81644 27.60216,-37.77245 51.19941,-45.80018 10.31855,-3.51035 20.43949,-4.77584 33.57365,-4.19795 15.00987,0.66042 25.36575,3.339 40.39146,10.44738 l 11.69729,5.53376 0.64546,8.1382 c 0.35501,4.47601 0.50371,13.7632 0.33046,20.6382 l -0.31501,12.5 h -4.40457 c -4.39189,0 -4.40948,-0.0144 -6.10661,-5 -4.93355,-14.49306 -14.64677,-27.22854 -24.41014,-32.00531 -5.88422,-2.87888 -17.03055,-5.45996 -23.57868,-5.45996 -6.66612,0 -17.73027,2.5986 -23.88487,5.60977 -11.31431,5.53558 -21.60432,19.48475 -26.09304,35.37183 -2.79371,9.88791 -3.75894,29.63724 -2.0617,42.18413 5.08492,37.59024 25.36154,59.79954 54.59572,59.79954 10.19496,0 16.99647,-1.36475 25.1815,-5.05278 9.70514,-4.37296 17.01146,-12.1487 29.01245,-30.87644 0.15128,-0.23608 1.75751,0.2777 3.56939,1.14173 l 3.29434,1.57096 -3.89658,12.35827 c -2.14311,6.79704 -4.26678,13.30539 -4.71926,14.463 -1.15322,2.95033 -13.14965,11.80838 -21.52227,15.89184 -13.98606,6.82123 -35.68891,9.79341 -52.00923,7.12262 z m 347.53355,-2.28898 c -4.55217,-2.34248 -5.96144,-3.74063 -8.17763,-8.1131 -1.47269,-2.90558 -2.87241,-5.83058 -3.11049,-6.5 -0.25003,-0.70303 -2.15134,0.71436 -4.50144,3.35575 -6.67145,7.49836 -19.2465,12.92713 -29.94406,12.92713 -1.99934,0 -6.36469,-0.76316 -9.70078,-1.69592 -7.91488,-2.21296 -15.50568,-9.39924 -17.50632,-16.57337 -1.95982,-7.02776 -0.93191,-16.35674 2.49627,-22.65545 5.81716,-10.68803 14.42828,-16.09035 40.44445,-25.37342 8.525,-3.04189 16.33501,-5.86059 17.35558,-6.26377 1.6789,-0.66328 1.82033,-1.74256 1.48546,-11.33557 -0.30762,-8.81232 -0.78978,-11.44648 -2.85558,-15.60105 -3.40831,-6.85451 -7.63314,-9.50145 -15.16546,-9.50145 -11.95466,0 -16.09545,4.23468 -15.19266,15.53712 0.26195,3.27959 0.11547,6.45252 -0.32553,7.05096 -1.14267,1.55065 -14.34835,6.41192 -17.41803,6.41192 -9.87994,0 -7.55045,-20.09336 3.42717,-29.56155 13.90672,-11.99453 35.69801,-15.50733 52.23223,-8.41994 6.26136,2.68393 13.79585,10.06793 16.59926,16.26773 2.34229,5.18 2.35756,5.45687 2.35756,42.75537 0,34.25483 0.15523,37.77872 1.77305,40.25 2.36119,3.60679 7.41109,3.73796 10.66252,0.27697 2.21769,-2.36062 2.38292,-2.38434 5.67432,-0.81479 3.88038,1.85043 3.97266,2.19054 1.77595,6.54587 -4.01787,7.96608 -11.39654,12.71153 -20.85643,13.41342 -5.1751,0.38397 -6.80871,0.0463 -11.52941,-2.38286 z m -23.10194,-18.37133 c 5.23559,-3.79265 9.65268,-10.63682 11.04018,-17.1065 0.58397,-2.72296 1.06176,-9.40015 1.06176,-14.8382 v -9.88737 l -8.47555,2.86491 c -12.4651,4.21348 -20.28666,8.69107 -23.39497,13.3929 -2.29558,3.47242 -2.6286,5.00214 -2.62254,12.04644 0.005,6.24483 0.43338,8.70036 1.89327,10.86206 4.38936,6.49942 13.55934,7.69199 20.49785,2.66576 z m -130.55109,18.10841 c -9.70646,-2.61585 -14.11316,-5.03056 -21.26634,-11.65314 -11.60532,-10.74448 -16.65205,-25.75384 -15.79518,-46.97611 0.39954,-9.89564 1.0121,-13.58536 3.4107,-20.54417 4.76967,-13.83775 13.5664,-25.2292 25.37768,-32.86321 9.40544,-6.07902 14.69224,-7.53067 27.42617,-7.53067 10.29023,0 11.43382,0.20551 17.72333,3.18498 15.84833,7.50768 24.50277,21.49471 26.33699,42.56502 l 0.67466,7.75 -8.36749,0.0639 c -4.60212,0.0352 -20.81629,0.009 -36.0315,-0.0586 -32.11122,-0.14224 -29.55563,-1.20942 -27.92944,11.66289 2.2018,17.42861 9.07587,28.61611 21.02687,34.22109 4.67323,2.19172 6.9307,2.60319 14.06658,2.56389 11.16926,-0.0615 17.78907,-3.07541 25.16841,-11.45876 l 5.15139,-5.85229 3.33682,2.54511 3.33681,2.54512 -3.04743,5.71756 c -5.38217,10.098 -16.08979,19.42622 -26.77815,23.32849 -8.20695,2.99633 -24.24199,3.37034 -33.82088,0.78888 z m 38.63825,-80.3173 c -0.0251,-5.51628 -2.94205,-16.06107 -5.52706,-19.98025 -3.16707,-4.80165 -8.99036,-7.77611 -15.16832,-7.74779 -12.64042,0.058 -23.39214,11.25826 -25.90749,26.98839 l -0.63797,3.98965 h 23.62781 23.62781 z m -144.45262,76.5 c 0.97604,-5.87288 1.03813,-5.94151 5.86801,-6.48591 5.48493,-0.61823 9.27196,-2.90822 10.85905,-6.56639 1.33612,-3.07969 2.57909,-89.04818 1.74034,-120.36877 -0.58118,-21.70235 -0.70721,-21.99572 -11.07367,-25.77552 -5.78697,-2.11003 -5.92633,-2.2484 -5.92633,-5.88387 v -3.72302 l 20.98252,-6.94074 c 13.8236,-4.57266 21.31973,-6.60353 21.97088,-5.95238 0.65115,0.65115 0.62592,27.08187 -0.0739,77.46748 -1.03838,74.75714 -0.89054,87.18961 1.09904,92.42261 1.06091,2.79039 5.36639,5.09992 11.27149,6.0462 3.68219,0.59007 3.75,0.68148 3.75,5.05562 v 4.45469 h -30.54534 -30.54532 z m 299.4674,-0.68261 c 0,-4.7566 0.0718,-4.81729 7.09007,-5.99538 4.61863,-0.77528 7.52425,-3.92703 8.82451,-9.57201 1.25769,-5.46017 1.37134,-54.77479 0.1481,-64.26246 -0.58222,-4.51582 -1.50062,-7.3397 -2.76441,-8.5 -1.04089,-0.95565 -1.40011,-1.51254 -0.79827,-1.23754 0.60184,0.275 0.24082,-0.28335 -0.80226,-1.24078 -1.94302,-1.78345 -10.62121,-4.75922 -13.87924,-4.75922 -1.4147,0 -1.8185,-0.78415 -1.8185,-3.53138 0,-1.94555 0.56134,-3.71065 1.25,-3.93056 1.03331,-0.32998 36.17221,-10.59437 42,-12.26858 1.60405,-0.46081 1.751,0.61206 1.76205,12.86389 l 0.012,13.36663 2.57155,-4.5 c 7.8396,-13.71864 15.53545,-19.91975 25.73759,-20.73868 6.96814,-0.55933 10.39711,0.65452 14.62143,5.17597 3.66844,3.92647 4.13692,13.72671 0.88294,18.47076 -1.28568,1.87443 -3.50256,4.27064 -4.9264,5.3249 -2.58811,1.91633 -2.59065,1.91598 -9.3903,-1.2967 -9.59288,-4.53242 -14.52868,-4.93043 -18.98562,-1.53095 -1.91988,1.46436 -4.68679,4.70346 -6.14869,7.19801 -3.14662,5.3693 -4.00398,13.44389 -4.23622,39.89669 -0.1711,19.48851 0.90452,28.99933 3.58254,31.67735 1.08344,1.08344 5.07667,2.45658 9.73716,3.34827 4.34528,0.83139 8.09418,1.7053 8.33089,1.94201 0.23672,0.23672 0.56635,2.25334 0.73253,4.48138 l 0.30217,4.05099 H 758.36826 726.45045 Z M 441.32289,554.12387 c -1.24387,-1.58606 -1.2085,-1.62143 0.37756,-0.37756 0.9625,0.75485 1.75,1.54235 1.75,1.75 0,0.82304 -0.82119,0.29331 -2.12756,-1.37244 z m -88.87244,-72.20055 c -26.675,-0.32866 -48.67546,-0.69924 -48.8899,-0.8235 -0.83961,-0.48655 0.82841,-11.44693 1.94722,-12.79502 0.73906,-0.89051 3.12409,-1.44411 6.31512,-1.46582 13.27642,-0.0903 28.04607,-4.71552 31.82165,-9.96511 4.24321,-5.89979 4.30591,-8.07687 4.30591,-149.5 0,-110.26282 -0.24666,-135.81793 -1.3461,-139.46375 -1.83431,-6.08269 -7.39408,-11.43616 -13.87593,-13.36106 -2.8418,-0.84393 -10.0294,-2.28343 -15.97244,-3.19891 -13.7348,-2.11572 -14.38374,-2.67964 -11.78136,-10.23782 l 1.97583,-5.73846 30.5,-0.78216 c 45.73037,-1.17274 133.66046,-0.23452 149,1.58984 29.5837,3.51845 50.37697,9.26087 64.66915,17.85952 12.33912,7.42362 24.39682,21.31506 29.30104,33.75717 5.38364,13.65841 6.71508,35.16635 3.06133,49.45239 -7.46776,29.19865 -30.83021,48.8561 -71.53152,60.18748 l -6,1.67042 11,2.24705 c 17.15717,3.50483 26.17996,6.29751 37,11.45203 34.51023,16.44022 49.73276,44.77491 46.39075,86.35015 -3.38954,42.16655 -33.68078,70.62439 -83.89075,78.8132 -26.97088,4.39871 -61.07118,5.22052 -164,3.95236 z m 133.07796,-20.33941 c 16.79891,-4.39804 28.25534,-11.71323 36.55113,-23.33874 2.52007,-3.53157 5.47659,-8.77234 6.57002,-11.64617 8.20591,-21.56712 7.02561,-62.40086 -2.34353,-81.07739 -3.97526,-7.92433 -9.68886,-14.39155 -17.08471,-19.3382 -14.52795,-9.71689 -31.09686,-13.0862 -68.86631,-14.00407 l -24.59545,-0.59772 -0.64355,3.89612 c -0.92015,5.57072 -0.72971,99.89324 0.23931,118.5261 0.71329,13.71554 1.10573,16.15897 3.20399,19.94888 4.92389,8.8936 12.83893,11.03255 38.89114,10.50989 15.75342,-0.31604 19.92198,-0.74342 28.07796,-2.8787 z M 447.95045,291.82248 c 17.55468,-1.30815 30.76886,-3.95 38.9824,-7.79358 23.90598,-11.18696 32.94962,-25.64355 34.19064,-54.65503 1.68413,-39.37012 -12.25056,-60.6736 -45.14492,-69.01794 -10.86953,-2.75728 -34.58997,-4.85325 -49.02144,-4.3316 -8.27774,0.29921 -9.88041,0.63749 -11.13147,2.34954 -1.25077,1.71165 -1.44009,11.55158 -1.31313,68.25 l 0.14836,66.25 9.64478,-0.004 c 5.30463,-0.002 15.94478,-0.4736 23.64478,-1.04739 z m 222.5,179.41086 c -25.25405,-4.73581 -44.94985,-24.09629 -52.19263,-51.30406 -2.86487,-10.762 -2.82911,-28.66396 0.0789,-39.50143 5.84667,-21.78911 19.94281,-39.8314 38.4596,-49.22621 12.36476,-6.27347 29.82313,-7.97887 44.24415,-4.32193 13.06643,3.31344 19.76968,7.2078 30.02038,17.44081 7.5294,7.51641 9.81315,10.56621 13.15976,17.57403 9.06142,18.97463 9.72974,40.73623 1.91247,62.27258 -7.17115,19.75628 -25.53453,38.17109 -44.68265,44.8078 -4.93934,1.71196 -9.14111,2.30983 -17.5,2.49006 -6.05,0.13044 -12.125,0.0262 -13.5,-0.23165 z m 7,-10.77981 c 7.81886,-3.27112 14.90451,-10.50724 16.35988,-16.70729 0.62663,-2.6695 -2.96783,-9.42199 -5.93234,-11.14443 -0.73085,-0.42464 -1.91353,-1.32499 -2.62818,-2.00079 -2.3265,-2.20002 -11.17335,-6.50008 -16.73086,-8.13212 -9.70618,-2.85035 -16.86845,-1.78853 -21.35173,3.16544 -2.21901,2.45198 -3.32107,11.06726 -1.9272,15.06573 1.33061,3.81699 0.52665,4.61102 -2.59663,2.56456 -2.38237,-1.56099 -2.36801,-1.4855 0.42018,2.20797 5.50319,7.29 13.25937,12.90908 21.38688,15.49406 3.30564,1.05136 9.88079,0.79183 13,-0.51313 z m 49.16994,-81.44862 c 2.01847,-0.48637 4.89941,-0.64928 6.4021,-0.36202 l 2.73215,0.52228 -0.55713,-6.14413 c -1.60288,-17.67687 -17.84113,-34.45484 -34.66843,-35.82073 -6.73633,-0.54679 -10.86436,1.59489 -13.40867,6.95663 -2.20028,4.63675 -2.10357,6.26358 0.72621,12.21693 4.75013,9.99338 15.29007,21.61202 21.36838,23.55529 2.96248,0.94712 11.52622,0.49238 17.40539,-0.92425 z m -75.16994,87.86896 c -0.825,-0.53316 -1.05,-0.96937 -0.5,-0.96937 0.55,0 1.675,0.43621 2.5,0.96937 0.825,0.53316 1.05,0.96937 0.5,0.96937 -0.55,0 -1.675,-0.43621 -2.5,-0.96937 z M 67.465768,356.29054 c 0.008,-1.05417 0.47209,-2.59167 1.03037,-3.41667 0.74131,-1.09546 0.83409,-0.69092 0.34401,1.5 -0.82247,3.67693 -1.39482,4.47511 -1.37438,1.91667 z"
       id="path1" />
  </g>
</svg>
